<svg width="1521" height="389" viewBox="0 0 1521 389" fill="none" xmlns="http://www.w3.org/2000/svg">
<path d="M377.808 77.4H426.192C441.936 77.4 453.744 81.624 461.616 90.072C469.488 98.52 473.424 110.904 473.424 127.224V229.176C473.424 245.496 469.488 257.88 461.616 266.328C453.744 274.776 441.936 279 426.192 279H377.808V77.4ZM425.616 250.2C430.8 250.2 434.736 248.664 437.424 245.592C440.304 242.52 441.744 237.528 441.744 230.616V125.784C441.744 118.872 440.304 113.88 437.424 110.808C434.736 107.736 430.8 106.2 425.616 106.2H409.488V250.2H425.616ZM497.688 77.4H529.368V279H497.688V77.4ZM600.902 281.88C585.542 281.88 573.83 277.56 565.766 268.92C557.702 260.088 553.67 247.512 553.67 231.192V125.208C553.67 108.888 557.702 96.408 565.766 87.768C573.83 78.936 585.542 74.52 600.902 74.52C616.262 74.52 627.974 78.936 636.038 87.768C644.102 96.408 648.134 108.888 648.134 125.208V142.488H618.182V123.192C618.182 109.944 612.71 103.32 601.766 103.32C590.822 103.32 585.35 109.944 585.35 123.192V233.496C585.35 246.552 590.822 253.08 601.766 253.08C612.71 253.08 618.182 246.552 618.182 233.496V194.04H602.342V165.24H648.134V231.192C648.134 247.512 644.102 260.088 636.038 268.92C627.974 277.56 616.262 281.88 600.902 281.88ZM671.354 77.4H703.034V279H671.354V77.4ZM754.408 106.2H721.288V77.4H819.208V106.2H786.088V279H754.408V106.2ZM848.688 77.4H891.6L924.432 279H892.752L886.992 238.968V239.544H850.992L845.232 279H815.856L848.688 77.4ZM883.248 212.184L869.136 112.536H868.56L854.736 212.184H883.248ZM942.682 77.4H974.362V250.2H1026.49V279H942.682V77.4ZM1093.57 77.4H1141.37C1157.69 77.4 1169.6 81.24 1177.09 88.92C1184.57 96.408 1188.32 108.024 1188.32 123.768V131.832C1188.32 142.2 1186.59 150.648 1183.13 157.176C1179.87 163.704 1174.78 168.408 1167.87 171.288V171.864C1183.61 177.24 1191.49 191.256 1191.49 213.912V231.192C1191.49 246.744 1187.36 258.648 1179.1 266.904C1171.04 274.968 1159.13 279 1143.39 279H1093.57V77.4ZM1137.63 159.48C1143.97 159.48 1148.67 157.848 1151.74 154.584C1155.01 151.32 1156.64 145.848 1156.64 138.168V126.936C1156.64 119.64 1155.29 114.36 1152.61 111.096C1150.11 107.832 1146.08 106.2 1140.51 106.2H1125.25V159.48H1137.63ZM1143.39 250.2C1148.96 250.2 1153.09 248.76 1155.77 245.88C1158.46 242.808 1159.81 237.624 1159.81 230.328V212.76C1159.81 203.544 1158.17 197.208 1154.91 193.752C1151.84 190.104 1146.65 188.28 1139.36 188.28H1125.25V250.2H1143.39ZM1258.96 281.88C1243.6 281.88 1231.89 277.56 1223.83 268.92C1215.76 260.088 1211.73 247.512 1211.73 231.192V77.4H1243.41V233.496C1243.41 240.408 1244.76 245.4 1247.44 248.472C1250.32 251.544 1254.36 253.08 1259.54 253.08C1264.72 253.08 1268.66 251.544 1271.35 248.472C1274.23 245.4 1275.67 240.408 1275.67 233.496V77.4H1306.2V231.192C1306.2 247.512 1302.16 260.088 1294.1 268.92C1286.04 277.56 1274.32 281.88 1258.96 281.88ZM1331.64 77.4H1363.32V250.2H1415.45V279H1331.64V77.4ZM1433.52 77.4H1465.2V250.2H1517.33V279H1433.52V77.4Z" fill="#175CD6"/>
<circle cx="150" cy="193" r="150" fill="#95B6EF"/>
<path d="M153.3 89H203.1C220.1 89 232.5 93 240.3 101C248.1 108.8 252 120.9 252 137.3V145.7C252 156.5 250.2 165.3 246.6 172.1C243.2 178.9 237.9 183.8 230.7 186.8V187.4C247.1 193 255.3 207.6 255.3 231.2V249.2C255.3 265.4 251 277.8 242.4 286.4C234 294.8 221.6 299 205.2 299H153.3V89ZM199.2 174.5C205.8 174.5 210.7 172.8 213.9 169.4C217.3 166 219 160.3 219 152.3V140.6C219 133 217.6 127.5 214.8 124.1C212.2 120.7 208 119 202.2 119H186.3V174.5H199.2ZM205.2 269C211 269 215.3 267.5 218.1 264.5C220.9 261.3 222.3 255.9 222.3 248.3V230C222.3 220.4 220.6 213.8 217.2 210.2C214 206.4 208.6 204.5 201 204.5H186.3V269H205.2Z" fill="#175CD6"/>
<path d="M145.7 300L95.3 300C78.9 300 66.6 295.6 58.4 286.8C50.2 278 46.1 265.1 46.1 248.1L46.1 141.9C46.1 124.9 50.2 112 58.4 103.2C66.6 94.4 78.9 90 95.3 90L145.7 90L145.7 300ZM95.9 120C90.5 120 86.4 121.6 83.6 124.8C80.6 128 79.1 133.2 79.1 140.4L79.1 249.6C79.1 256.8 80.6 262 83.6 265.2C86.4 268.4 90.5 270 95.9 270L112.7 270L112.7 120L95.9 120Z" fill="#175CD6"/>
</svg>
