<svg width="1521" height="346" viewBox="0 0 1521 346" fill="none" xmlns="http://www.w3.org/2000/svg">
<path fill-rule="evenodd" clip-rule="evenodd" d="M300 173C300 255.843 232.843 323 150 323C67.1573 323 0 255.843 0 173C0 90.1573 67.1573 23 150 23C232.843 23 300 90.1573 300 173ZM143.35 52H201.45C221.283 52 235.75 56.6666 244.85 66C253.95 75.1 258.5 89.2166 258.5 108.35V118.15C258.5 130.75 256.4 141.017 252.2 148.95C248.233 156.883 242.05 162.6 233.65 166.1V166.8C252.783 173.333 262.35 190.367 262.35 217.9V238.9C262.35 257.8 257.333 272.267 247.3 282.3C237.5 292.1 223.033 297 203.9 297L150.65 297L150.65 52L143.35 52ZM143.35 297V52L91.85 52C72.7166 52 58.3666 57.1333 48.8 67.4C39.2333 77.6667 34.45 92.7167 34.45 112.55L34.45 236.45C34.45 256.283 39.2333 271.333 48.7999 281.6C58.3666 291.867 72.7166 297 91.85 297L143.35 297ZM196.9 151.75C204.6 151.75 210.317 149.767 214.05 145.8C218.017 141.833 220 135.183 220 125.85V112.2C220 103.333 218.367 96.9166 215.1 92.95C212.067 88.9833 207.167 87 200.4 87H181.85V151.75H196.9ZM203.9 262C210.667 262 215.683 260.25 218.95 256.75C222.217 253.017 223.85 246.717 223.85 237.85V216.5C223.85 205.3 221.867 197.6 217.9 193.4C214.167 188.967 207.867 186.75 199 186.75H181.85V262H203.9ZM78.2 92.6C81.4666 88.8667 86.25 87 92.55 87H112.15L112.15 262H92.5499C86.25 262 81.4666 260.133 78.2 256.4C74.7 252.667 72.95 246.6 72.95 238.2L72.95 110.8C72.95 102.4 74.7 96.3333 78.2 92.6Z" fill="white"/>
<path d="M377.808 57.4H426.192C441.936 57.4 453.744 61.624 461.616 70.072C469.488 78.52 473.424 90.904 473.424 107.224V209.176C473.424 225.496 469.488 237.88 461.616 246.328C453.744 254.776 441.936 259 426.192 259H377.808V57.4ZM425.616 230.2C430.8 230.2 434.736 228.664 437.424 225.592C440.304 222.52 441.744 217.528 441.744 210.616V105.784C441.744 98.872 440.304 93.88 437.424 90.808C434.736 87.736 430.8 86.2 425.616 86.2H409.488V230.2H425.616ZM497.688 57.4H529.368V259H497.688V57.4ZM600.902 261.88C585.542 261.88 573.83 257.56 565.766 248.92C557.702 240.088 553.67 227.512 553.67 211.192V105.208C553.67 88.888 557.702 76.408 565.766 67.768C573.83 58.936 585.542 54.52 600.902 54.52C616.262 54.52 627.974 58.936 636.038 67.768C644.102 76.408 648.134 88.888 648.134 105.208V122.488H618.182V103.192C618.182 89.944 612.71 83.32 601.766 83.32C590.822 83.32 585.35 89.944 585.35 103.192V213.496C585.35 226.552 590.822 233.08 601.766 233.08C612.71 233.08 618.182 226.552 618.182 213.496V174.04H602.342V145.24H648.134V211.192C648.134 227.512 644.102 240.088 636.038 248.92C627.974 257.56 616.262 261.88 600.902 261.88ZM671.354 57.4H703.034V259H671.354V57.4ZM754.408 86.2H721.288V57.4H819.208V86.2H786.088V259H754.408V86.2ZM848.688 57.4H891.6L924.432 259H892.752L886.992 218.968V219.544H850.992L845.232 259H815.856L848.688 57.4ZM883.248 192.184L869.136 92.536H868.56L854.736 192.184H883.248ZM942.682 57.4H974.362V230.2H1026.49V259H942.682V57.4ZM1093.57 57.4H1141.37C1157.69 57.4 1169.6 61.24 1177.09 68.92C1184.57 76.408 1188.32 88.024 1188.32 103.768V111.832C1188.32 122.2 1186.59 130.648 1183.13 137.176C1179.87 143.704 1174.78 148.408 1167.87 151.288V151.864C1183.61 157.24 1191.49 171.256 1191.49 193.912V211.192C1191.49 226.744 1187.36 238.648 1179.1 246.904C1171.04 254.968 1159.13 259 1143.39 259H1093.57V57.4ZM1137.63 139.48C1143.97 139.48 1148.67 137.848 1151.74 134.584C1155.01 131.32 1156.64 125.848 1156.64 118.168V106.936C1156.64 99.64 1155.29 94.36 1152.61 91.096C1150.11 87.832 1146.08 86.2 1140.51 86.2H1125.25V139.48H1137.63ZM1143.39 230.2C1148.96 230.2 1153.09 228.76 1155.77 225.88C1158.46 222.808 1159.81 217.624 1159.81 210.328V192.76C1159.81 183.544 1158.17 177.208 1154.91 173.752C1151.84 170.104 1146.65 168.28 1139.36 168.28H1125.25V230.2H1143.39ZM1258.96 261.88C1243.6 261.88 1231.89 257.56 1223.83 248.92C1215.76 240.088 1211.73 227.512 1211.73 211.192V57.4H1243.41V213.496C1243.41 220.408 1244.76 225.4 1247.44 228.472C1250.32 231.544 1254.36 233.08 1259.54 233.08C1264.72 233.08 1268.66 231.544 1271.35 228.472C1274.23 225.4 1275.67 220.408 1275.67 213.496V57.4H1306.2V211.192C1306.2 227.512 1302.16 240.088 1294.1 248.92C1286.04 257.56 1274.32 261.88 1258.96 261.88ZM1331.64 57.4H1363.32V230.2H1415.45V259H1331.64V57.4ZM1433.52 57.4H1465.2V230.2H1517.33V259H1433.52V57.4Z" fill="white"/>
</svg>
